<svg aria-label="Edge Scout, found" role="img" shape-rendering="crispEdges" viewBox="0 0 24 24" xmlns="http://www.w3.org/2000/svg"><path d="M8 3h10v2h2v5h2v5h-3v4h-3v3h-3v-4H9v4H6v-4H4v-5H1v-3h3V6h4z" fill="#154cff"></path><path d="M8 3h10v2H8zM4 6h4v5H4zM1 10h3v3H1z" fill="#527eff"></path><path d="M17 8h3v7h-3zM16 18h3v3h-3z" fill="#0730b9"></path><g class="face-state face-found" fill="#07153d"><path d="M8 7h2v3H8zM14 7h2v3h-2zM9 12h1v1h4v-1h1v2h-1v1h-4v-1H9z"></path><path d="M10 12h4v1h-4z" fill="#bed0ff"></path></g></svg>