<svg aria-label="Edge Scout, search" role="img" shape-rendering="crispEdges" viewBox="0 0 24 24" xmlns="http://www.w3.org/2000/svg"><path d="M8 3h10v2h2v5h2v5h-3v4h-3v3h-3v-4H9v4H6v-4H4v-5H1v-3h3V6h4z" fill="#154cff"></path><path d="M8 3h10v2H8zM4 6h4v5H4zM1 10h3v3H1z" fill="#527eff"></path><path d="M17 8h3v7h-3zM16 18h3v3h-3z" fill="#0730b9"></path><g class="face-state face-search" fill="#07153d"><g class="look-around"><path d="M9 7h2v3H9zM15 7h2v3h-2z"></path></g><path d="M11 12h2v2h-2z"></path></g></svg>