<svg xmlns="http://www.w3.org/2000/svg" width="1200" height="630" viewBox="0 0 1200 630" role="img" aria-label="Capability sample assessment: spreadsheet work critical, writing developing, other categories not measured">
<rect width="1200" height="630" fill="#101923"/>
<g font-family="Arial, Helvetica, sans-serif">
<text x="58" y="58" font-size="16" letter-spacing="3" fill="#98afc5">CAPABILITY SAMPLE ASSESSMENT</text>
<text x="58" y="114" font-size="40" font-weight="700" fill="#f6f8fa">Numerical integrity needs attention</text>
<text x="58" y="150" font-size="19" fill="#adbdcd">9 entries · Reported friction, not frequency, determines gaps</text>
<rect x="58" y="186" width="460" height="319" rx="16" fill="#1b2938"/>
<text x="84" y="225" font-size="14" letter-spacing="2" fill="#a7b9cb">STRONGEST ELIGIBLE CATEGORY</text>
<text x="84" y="275" font-size="34" font-weight="700" fill="#f6f8fa">Writing · Developing</text>
<text x="84" y="311" font-size="18" fill="#c1cddb">Provisional; successful outcomes unverified.</text>
<path d="M84 339 H492" stroke="#3c4c60"/>
<text x="84" y="375" font-size="14" letter-spacing="2" fill="#ff947e">SURPRISING WEAKNESS</text>
<text x="84" y="413" font-size="23" font-weight="700" fill="#f6f8fa">Spreadsheet correctness</text>
<text x="84" y="445" font-size="18" fill="#c1cddb">3 of 4 entries report concrete errors.</text>
<text x="84" y="474" font-size="18" fill="#c1cddb">One reports a disrupted workbook.</text>
<text x="557" y="221" font-size="20" fill="#e1e8f0">Research verification</text>
<text x="1138" y="221" text-anchor="end" font-size="19" font-weight="700" fill="#8794a7">Not measured</text>
<path d="M557 238 H1138" stroke="#2a3a4d"/>
<text x="557" y="272" font-size="20" fill="#e1e8f0">Spreadsheet work</text>
<text x="1138" y="272" text-anchor="end" font-size="19" font-weight="700" fill="#ff947e">Critical</text>
<path d="M557 289 H1138" stroke="#2a3a4d"/>
<text x="557" y="323" font-size="20" fill="#e1e8f0">Visual design</text>
<text x="1138" y="323" text-anchor="end" font-size="19" font-weight="700" fill="#8794a7">Not measured</text>
<path d="M557 340 H1138" stroke="#2a3a4d"/>
<text x="557" y="374" font-size="20" fill="#e1e8f0">Coding</text>
<text x="1138" y="374" text-anchor="end" font-size="19" font-weight="700" fill="#8794a7">Not measured</text>
<path d="M557 391 H1138" stroke="#2a3a4d"/>
<text x="557" y="425" font-size="20" fill="#e1e8f0">Writing</text>
<text x="1138" y="425" text-anchor="end" font-size="19" font-weight="700" fill="#e6c574">Developing</text>
<path d="M557 442 H1138" stroke="#2a3a4d"/>
<text x="557" y="476" font-size="20" fill="#e1e8f0">Tool execution</text>
<text x="1138" y="476" text-anchor="end" font-size="19" font-weight="700" fill="#8794a7">Not measured</text>
<path d="M557 493 H1138" stroke="#2a3a4d"/>
<text x="58" y="550" font-size="17" fill="#adbdcd">Fewer than 2 relevant entries: Not measured. Requests alone do not verify competence.</text>
<text x="58" y="587" font-size="17" fill="#adbdcd">Results describe this sample, not model intelligence.</text>
</g></svg>
