<svg xmlns="http://www.w3.org/2000/svg" width="1200" height="630" viewBox="0 0 1200 630">
<rect width="1200" height="630" fill="#101824"/>
<g font-family="Arial, Helvetica, sans-serif">
<text x="56" y="57" font-size="16" fill="#9aadc4" font-weight="700">CAPABILITY GAP / SAMPLE RESULTS</text>
<text x="56" y="111" font-size="38" fill="#edf2f8" font-weight="700">Visual consistency needs the most work.</text>
<text x="56" y="148" font-size="20" fill="#aab8ca" font-weight="400">12 user entries • Reported friction, without verified delivery outcomes</text>
<rect x="56" y="180" width="528" height="77" rx="10" fill="#1b2737"/>
<text x="76" y="211" font-size="22" fill="#edf2f8" font-weight="700">Research verification</text>
<text x="76" y="237" font-size="15" fill="#aab8ca" font-weight="400">3 relevant entries</text>
<text x="563" y="226" text-anchor="end" font-size="20" font-weight="700" fill="#f2c66d">Weak</text>
<rect x="56" y="271" width="528" height="77" rx="10" fill="#1b2737"/>
<text x="76" y="302" font-size="22" fill="#edf2f8" font-weight="700">Spreadsheet work</text>
<text x="76" y="328" font-size="15" fill="#aab8ca" font-weight="400">1 relevant entries</text>
<text x="563" y="317" text-anchor="end" font-size="20" font-weight="700" fill="#a6b0c2">Not measured</text>
<rect x="56" y="362" width="528" height="77" rx="10" fill="#1b2737"/>
<text x="76" y="393" font-size="22" fill="#edf2f8" font-weight="700">Visual design</text>
<text x="76" y="419" font-size="15" fill="#aab8ca" font-weight="400">4 relevant entries</text>
<text x="563" y="408" text-anchor="end" font-size="20" font-weight="700" fill="#ff8c84">Critical</text>
<rect x="616" y="180" width="528" height="77" rx="10" fill="#1b2737"/>
<text x="636" y="211" font-size="22" fill="#edf2f8" font-weight="700">Coding</text>
<text x="636" y="237" font-size="15" fill="#aab8ca" font-weight="400">4 relevant entries</text>
<text x="1123" y="226" text-anchor="end" font-size="20" font-weight="700" fill="#8fbaff">Developing</text>
<rect x="616" y="271" width="528" height="77" rx="10" fill="#1b2737"/>
<text x="636" y="302" font-size="22" fill="#edf2f8" font-weight="700">Writing</text>
<text x="636" y="328" font-size="15" fill="#aab8ca" font-weight="400">0 relevant entries</text>
<text x="1123" y="317" text-anchor="end" font-size="20" font-weight="700" fill="#a6b0c2">Not measured</text>
<rect x="616" y="362" width="528" height="77" rx="10" fill="#1b2737"/>
<text x="636" y="393" font-size="22" fill="#edf2f8" font-weight="700">Tool execution</text>
<text x="636" y="419" font-size="15" fill="#aab8ca" font-weight="400">0 relevant entries</text>
<text x="1123" y="408" text-anchor="end" font-size="20" font-weight="700" fill="#a6b0c2">Not measured</text>
<text x="56" y="494" font-size="22" fill="#edf2f8" font-weight="700">Relative lead: Coding — provisional; successful delivery is unverified.</text>
<text x="56" y="530" font-size="20" fill="#c4cede" font-weight="400">Surprising gap: repeated brand, layout, and interface-consistency friction.</text>
<path d="M56 554H1144" stroke="#334155"/>
<text x="56" y="582" font-size="17" fill="#9aadc4" font-weight="400">Fewer than 2 relevant entries = Not measured. Volume does not establish capability.</text>
<text x="56" y="610" font-size="17" fill="#9aadc4" font-weight="400">Results describe this sample, not model intelligence.</text>
</g></svg>
